<svg width="870" height="708" viewBox="0 0 870 708" fill="none" xmlns="http://www.w3.org/2000/svg">
<path d="M787.346 322.543C773.056 310.742 755.659 300.515 739.505 290.288C697.877 266.688 650.657 249.774 610.893 224.993C518.317 167.565 497.813 72.7687 556.838 0C497.813 9.04693 446.244 29.5009 402.131 51.9215C241.21 133.737 177.836 278.095 253.637 401.998C256.122 405.932 258.607 409.865 258.607 414.979C258.607 423.632 249.287 431.499 236.861 434.646C222.571 438.579 207.659 436.219 195.854 429.926C192.307 428.069 189.354 425.799 187.156 423.239C116.947 366.991 105.764 286.355 152.984 221.846C49.2241 275.341 -7.31556 365.81 0.761529 451.166C4.48942 470.833 8.21731 490.501 18.7797 510.168C27.4781 533.769 44.2536 557.369 62.893 578.217C129.995 646.265 246.181 695.04 371.065 704.873C504.027 715.494 646.308 700.153 748.203 641.938C861.904 576.643 901.668 472.014 843.264 382.331L835.187 372.104C822.14 354.01 787.346 322.543 787.346 322.543ZM591.011 570.35C573.614 579.79 545.033 590.017 522.666 593.95C453.079 609.684 383.491 587.657 342.485 561.696C416.421 550.682 460.534 516.068 473.582 481.06C484.144 449.593 464.262 423.632 456.185 393.345C448.729 364.237 449.972 339.456 466.748 312.316C478.553 327.263 490.979 342.21 505.89 354.01C553.732 393.345 628.911 410.652 645.065 464.147C647.55 469.653 648.793 475.16 648.793 481.06C650.657 513.315 628.29 548.716 591.011 570.35Z" fill="url(#paint0_linear_606_41328)" fill-opacity="0.2"/>
<defs>
<linearGradient id="paint0_linear_606_41328" x1="435" y1="0" x2="435" y2="708" gradientUnits="userSpaceOnUse">
<stop stop-color="#FF5F19"/>
<stop offset="1" stop-color="#FF5F19" stop-opacity="0"/>
</linearGradient>
</defs>
</svg>
