<svg width="20" height="20" viewBox="0 0 20 20" fill="none" xmlns="http://www.w3.org/2000/svg">
<path d="M1.42857 17.4085H18.5714C19.3571 17.4085 20 17.9916 20 18.7042C20 19.4169 19.3571 20 18.5714 20H1.42857C0.642857 20 0 19.4169 0 18.7042C0 17.9916 0.642857 17.4085 1.42857 17.4085ZM8.58571 12.0959C8.04851 12.5768 7.3233 12.8454 6.56848 12.843C5.81366 12.8406 5.09057 12.5673 4.55714 12.0829L1.42857 9.24522C0.642857 8.53256 0.657143 7.37933 1.47143 6.69258C2.24286 6.01879 3.47143 6.0447 4.21429 6.7185L6.57143 8.85649L15.7571 0.524781C16.5286 -0.174927 17.7714 -0.174927 18.5429 0.524781L18.6 0.576612C19.3714 1.27632 19.3714 2.41659 18.5857 3.11629L8.58571 12.0959V12.0959Z" fill="#FF5F19"/>
</svg>
