<svg width="21" height="15" viewBox="0 0 21 15" fill="none" xmlns="http://www.w3.org/2000/svg">
<path d="M19.1344 8.68421H17.221V3.34579L9.63608 8.95105L1.91344 3.32842V12.6316H11.4806V14.2105H0.95672C0.702982 14.2105 0.459636 14.1274 0.280217 13.9793C0.100797 13.8312 0 13.6304 0 13.4211V0.789474C0 0.580092 0.100797 0.379286 0.280217 0.231231C0.459636 0.0831764 0.702982 0 0.95672 0H18.1777C18.4314 0 18.6748 0.0831764 18.8542 0.231231C19.0336 0.379286 19.1344 0.580092 19.1344 0.789474V8.68421ZM2.40232 1.57895L9.62556 6.83842L16.7445 1.57895H2.40232ZM16.2642 15L12.8813 12.2084L14.235 11.0921L16.2642 12.7674L19.6472 9.97579L21 11.0921L16.2642 15Z" fill="#FF5F19"/>
</svg>
