<svg width="20" height="18" viewBox="0 0 20 18" fill="none" xmlns="http://www.w3.org/2000/svg">
<path d="M10.3474 0C8.48994 0 6.67422 0.527841 5.12983 1.51677C3.58544 2.50571 2.38173 3.91131 1.67093 5.55585C0.960124 7.20038 0.774145 9.00998 1.13651 10.7558C1.49888 12.5016 2.39331 14.1053 3.70671 15.364C5.0201 16.6226 6.69347 17.4798 8.51521 17.8271C10.3369 18.1743 12.2252 17.9961 13.9413 17.3149C15.6573 16.6337 17.124 15.4802 18.1559 14.0001C19.1879 12.5201 19.7387 10.78 19.7387 9C19.7337 6.61451 18.7427 4.32809 16.9825 2.64129C15.2224 0.954496 12.8366 0.00475672 10.3474 0ZM10.3474 17.28C8.63853 17.28 6.96808 16.7944 5.54724 15.8846C4.12639 14.9747 3.01898 13.6816 2.36504 12.1686C1.7111 10.6556 1.54 8.99081 1.87338 7.38465C2.20675 5.77849 3.02963 4.30313 4.23796 3.14515C5.44629 1.98718 6.98579 1.19858 8.66178 0.879098C10.3378 0.559612 12.075 0.723584 13.6537 1.35028C15.2325 1.97697 16.5819 3.03824 17.5313 4.39988C18.4806 5.76152 18.9874 7.36237 18.9874 9C18.9849 11.1953 18.0738 13.2999 16.454 14.8522C14.8342 16.4045 12.6381 17.2776 10.3474 17.28ZM14.4795 9C14.4795 9.09548 14.44 9.18704 14.3695 9.25456C14.2991 9.32207 14.2035 9.36 14.1039 9.36H10.723V12.6C10.723 12.6955 10.6834 12.787 10.613 12.8546C10.5425 12.9221 10.447 12.96 10.3474 12.96C10.2477 12.96 10.1522 12.9221 10.0817 12.8546C10.0113 12.787 9.97171 12.6955 9.97171 12.6V9.36H6.59084C6.49121 9.36 6.39566 9.32207 6.32521 9.25456C6.25477 9.18704 6.21519 9.09548 6.21519 9C6.21519 8.90452 6.25477 8.81295 6.32521 8.74544C6.39566 8.67793 6.49121 8.64 6.59084 8.64H9.97171V5.4C9.97171 5.30452 10.0113 5.21295 10.0817 5.14544C10.1522 5.07793 10.2477 5.04 10.3474 5.04C10.447 5.04 10.5425 5.07793 10.613 5.14544C10.6834 5.21295 10.723 5.30452 10.723 5.4V8.64H14.1039C14.2035 8.64 14.2991 8.67793 14.3695 8.74544C14.44 8.81295 14.4795 8.90452 14.4795 9Z" fill="#FF5F19"/>
</svg>
