<svg width="25" height="27" viewBox="0 0 25 27" fill="none" xmlns="http://www.w3.org/2000/svg">
<path d="M17.6136 17.8875L20.8636 20.169L20.0114 21.816L15.9091 18.9V12.15H17.6136V17.8875ZM25 17.55C25 22.7745 21.4432 27 17.0455 27C14.3409 27 11.9659 25.3935 10.5227 22.95H3.40909V12.15H0L11.3636 0L19.3182 8.4915C22.6023 9.6525 25 13.2705 25 17.55ZM9.42045 20.25C9.21591 19.3995 9.09091 18.495 9.09091 17.55C9.09091 12.879 11.9318 9.018 15.6818 8.2485L11.3636 3.6315L5.68182 9.7065V20.25H9.42045ZM22.7273 17.55C22.7273 13.824 20.1818 10.8 17.0455 10.8C13.9091 10.8 11.3636 13.824 11.3636 17.55C11.3636 21.276 13.9091 24.3 17.0455 24.3C20.1818 24.3 22.7273 21.276 22.7273 17.55Z" fill="#FF5F19"/>
</svg>
