<svg width="80" height="80" viewBox="0 0 80 80" fill="none" xmlns="http://www.w3.org/2000/svg">
<path d="M3.23232 0.000168685C2.37506 0.000168685 1.5529 0.421596 0.946725 1.17174C0.340547 1.92188 0 2.9393 0 4.00016C0 5.06102 0.340547 6.07844 0.946725 6.82858C1.5529 7.57872 2.37506 8.00015 3.23232 8.00015H10.4081L18.8897 50.0001C19.6105 53.5601 22.1867 56 25.1507 56H65.4578C68.3766 56 70.8558 53.6001 71.6218 50.1201L80 12.0001H73.2315L65.4545 48.0001H25.1475L16.6691 6.00016C16.3189 4.27708 15.5115 2.74928 14.3763 1.66142C13.2412 0.573565 11.8438 -0.0114117 10.4081 0.000168685H3.23232ZM61.4141 56C56.097 56 51.7172 61.42 51.7172 68C51.7172 74.58 56.097 80 61.4141 80C66.7313 80 71.1111 74.58 71.1111 68C71.1111 61.42 66.7313 56 61.4141 56ZM32.3232 56C27.0061 56 22.6263 61.42 22.6263 68C22.6263 74.58 27.0061 80 32.3232 80C37.6404 80 42.0202 74.58 42.0202 68C42.0202 61.42 37.6404 56 32.3232 56ZM42.0202 0.000168685V20.0001H32.3232L45.2525 36.0001L58.1818 20.0001H48.4848V0.000168685H42.0202ZM32.3232 64C34.1463 64 35.5556 65.744 35.5556 68C35.5556 70.256 34.1463 72 32.3232 72C30.5002 72 29.0909 70.256 29.0909 68C29.0909 65.744 30.5002 64 32.3232 64ZM61.4141 64C63.2372 64 64.6465 65.744 64.6465 68C64.6465 70.256 63.2372 72 61.4141 72C59.5911 72 58.1818 70.256 58.1818 68C58.1818 65.744 59.5911 64 61.4141 64Z" fill="#FF5F19"/>
</svg>
