<svg width="80" height="60" viewBox="0 0 80 60" fill="none" xmlns="http://www.w3.org/2000/svg">
<path d="M40 0H21.8182L10.9091 15.7895H7.27273C3.23636 15.7895 0 21.4105 0 28.4211V47.3684H7.89091C9.45455 54.9474 13.5636 60 18.1818 60C22.8 60 26.9091 54.9474 28.4364 47.3684H51.5273C53.0909 54.9474 57.2 60 61.8182 60C66.4364 60 70.5455 54.9474 72.0727 47.3684H80V41.0526C80 34.0421 76.2545 31.7684 72.7273 28.4211L40 0ZM15.4545 22.1053L23.6364 9.47368H38.1818L52.7273 22.1053H15.4545ZM18.1818 31.5789C19.6285 31.5789 21.0158 32.5771 22.0388 34.3537C23.0617 36.1304 23.6364 38.5401 23.6364 41.0526C23.6364 43.5652 23.0617 45.9749 22.0388 47.7515C21.0158 49.5282 19.6285 50.5263 18.1818 50.5263C16.7352 50.5263 15.3478 49.5282 14.3249 47.7515C13.3019 45.9749 12.7273 43.5652 12.7273 41.0526C12.7273 38.5401 13.3019 36.1304 14.3249 34.3537C15.3478 32.5771 16.7352 31.5789 18.1818 31.5789M61.8182 31.5789C63.2648 31.5789 64.6522 32.5771 65.6751 34.3537C66.6981 36.1304 67.2727 38.5401 67.2727 41.0526C67.2727 43.5652 66.6981 45.9749 65.6751 47.7515C64.6522 49.5282 63.2648 50.5263 61.8182 50.5263C60.3715 50.5263 58.9842 49.5282 57.9612 47.7515C56.9383 45.9749 56.3636 43.5652 56.3636 41.0526C56.3636 38.5401 56.9383 36.1304 57.9612 34.3537C58.9842 32.5771 60.3715 31.5789 61.8182 31.5789Z" fill="#FF5F19"/>
</svg>
