<svg width="80" height="60" viewBox="0 0 80 60" fill="none" xmlns="http://www.w3.org/2000/svg">
<path d="M47.2727 33.75C44.2424 33.75 41.6667 32.6562 39.5455 30.4688C37.4242 28.2812 36.3636 25.625 36.3636 22.5C36.3636 19.375 37.4242 16.7188 39.5455 14.5312C41.6667 12.3438 44.2424 11.25 47.2727 11.25C50.303 11.25 52.8788 12.3438 55 14.5312C57.1212 16.7188 58.1818 19.375 58.1818 22.5C58.1818 25.625 57.1212 28.2812 55 30.4688C52.8788 32.6562 50.303 33.75 47.2727 33.75ZM21.8182 45C19.8182 45 18.1067 44.265 16.6836 42.795C15.2582 41.3275 14.5455 39.5625 14.5455 37.5V7.5C14.5455 5.4375 15.2582 3.6725 16.6836 2.205C18.1067 0.734999 19.8182 0 21.8182 0H72.7273C74.7273 0 76.44 0.734999 77.8655 2.205C79.2885 3.6725 80 5.4375 80 7.5V37.5C80 39.5625 79.2885 41.3275 77.8655 42.795C76.44 44.265 74.7273 45 72.7273 45H21.8182ZM29.0909 37.5H65.4545C65.4545 35.4375 66.1661 33.6712 67.5891 32.2012C69.0145 30.7337 70.7273 30 72.7273 30V15C70.7273 15 69.0145 14.265 67.5891 12.795C66.1661 11.3275 65.4545 9.5625 65.4545 7.5H29.0909C29.0909 9.5625 28.3782 11.3275 26.9527 12.795C25.5297 14.265 23.8182 15 21.8182 15V30C23.8182 30 25.5297 30.7337 26.9527 32.2012C28.3782 33.6712 29.0909 35.4375 29.0909 37.5ZM7.27273 60C5.27273 60 3.56121 59.2663 2.13818 57.7988C0.712728 56.3288 0 54.5625 0 52.5V15C0 13.9375 0.349091 13.0463 1.04727 12.3263C1.74303 11.6088 2.60606 11.25 3.63636 11.25C4.66667 11.25 5.53091 11.6088 6.22909 12.3263C6.92485 13.0463 7.27273 13.9375 7.27273 15V52.5H65.4545C66.4848 52.5 67.3479 52.86 68.0436 53.58C68.7418 54.2975 69.0909 55.1875 69.0909 56.25C69.0909 57.3125 68.7418 58.2025 68.0436 58.92C67.3479 59.64 66.4848 60 65.4545 60H7.27273ZM21.8182 37.5V7.5V37.5Z" fill="#FF5F19"/>
</svg>
