<svg width="74" height="54" viewBox="0 0 74 54" fill="none" xmlns="http://www.w3.org/2000/svg">
<path d="M56.9997 48.6663C59.7663 48.6663 61.9997 46.433 61.9997 43.6663C61.9997 40.8997 59.7663 38.6663 56.9997 38.6663C54.233 38.6663 51.9997 40.8997 51.9997 43.6663C51.9997 46.433 54.233 48.6663 56.9997 48.6663ZM61.9997 18.6663H53.6663V26.9997H68.533L61.9997 18.6663ZM16.9997 48.6663C19.7663 48.6663 21.9997 46.433 21.9997 43.6663C21.9997 40.8997 19.7663 38.6663 16.9997 38.6663C14.233 38.6663 11.9997 40.8997 11.9997 43.6663C11.9997 46.433 14.233 48.6663 16.9997 48.6663ZM63.6663 13.6663L73.6663 26.9997V43.6663H66.9997C66.9997 49.1997 62.533 53.6663 56.9997 53.6663C51.4663 53.6663 46.9997 49.1997 46.9997 43.6663H26.9997C26.9997 49.1997 22.533 53.6663 16.9997 53.6663C11.4663 53.6663 6.99967 49.1997 6.99967 43.6663H0.333008V6.99967C0.333008 3.29967 3.29967 0.333008 6.99967 0.333008H53.6663V13.6663H63.6663ZM6.99967 6.99967V36.9997H9.53301C11.3663 34.9663 14.033 33.6663 16.9997 33.6663C19.9663 33.6663 22.633 34.9663 24.4663 36.9997H46.9997V6.99967H6.99967ZM30.333 10.333L41.9997 21.9997L30.333 33.6663V25.333H13.6663V18.6663H30.333V10.333Z" fill="#FF5F19"/>
</svg>
