<svg width="60" height="80" viewBox="0 0 60 80" fill="none" xmlns="http://www.w3.org/2000/svg">
<path d="M44.8 80L36 66.6667L39.712 61.5111L44.8 68.5778L56.288 52.6222L60 58.8889M31.36 80H6.4C2.848 80 0 76.0444 0 71.1111V8.88889C0 3.95556 2.848 0 6.4 0H51.2C54.752 0 57.6 3.95556 57.6 8.88889V43.5556C55.648 42 53.504 40.8889 51.2 40.3556V8.88889H6.4V71.1111H29.056C29.44 74.3111 30.24 77.2889 31.36 80ZM28.8 62.2222H12.8V53.3333H28.8M37.376 44.4444H12.8V35.5556H44.8V40.3556C42.08 40.9778 39.584 42.4 37.376 44.4444ZM44.8 26.6667H12.8V17.7778H44.8" fill="#FF5F19"/>
</svg>
